<svg xmlns="http://www.w3.org/2000/svg" width="22.122" height="20" viewBox="0 0 22.122 20"><defs><style>.a{fill:#fff;}</style></defs><path class="a" d="M278.649,106.682a1.878,1.878,0,1,1-1.839,1.877A1.858,1.858,0,0,1,278.649,106.682Z" transform="translate(-270.384 -90.436)"/><path class="a" d="M299.354,106.682a1.878,1.878,0,1,1-1.839,1.877A1.858,1.858,0,0,1,299.354,106.682Z" transform="translate(-283.064 -90.436)"/><path class="a" d="M281.2,71.58h-11.35a.909.909,0,0,0-.671.908,1.026,1.026,0,0,0,.671.973h10.176l-.572,1.975h-10a.846.846,0,0,0-.625.844.957.957,0,0,0,.625.908h9.5l-.537,1.847H268.09L267.4,73.46l-.222-1.88s-.2-1.737-.312-2.453-1.876-1.623-5.669-3.447c-.892-.382-1.638,1.284,0,2.155l2.991,1.426s.7.413.755.965,1.274,9.74,1.274,9.74.049,1.279,1.186,1.279h11.413a1.225,1.225,0,0,0,1.141-1.019l2.262-6.857S282.892,71.58,281.2,71.58Z" transform="translate(-260.231 -65.623)"/></svg>