<svg xmlns="http://www.w3.org/2000/svg" width="17.142" height="15" viewBox="0 0 17.142 15"><defs><style>.a{fill:#fff;}</style></defs><path class="a" d="M189.254,261.315a5.156,5.156,0,0,0-7.067-.155,5.155,5.155,0,0,0-7.067.155,5.046,5.046,0,0,0,0,7.187c.572.568,5.922,5.862,5.922,5.862a1.63,1.63,0,0,0,2.292,0l5.922-5.862A5.046,5.046,0,0,0,189.254,261.315Zm-.764,6.43-5.922,5.862a.542.542,0,0,1-.763,0l-5.922-5.862a3.988,3.988,0,0,1,0-5.674,4.068,4.068,0,0,1,5.577-.119l.726.653.726-.653a4.068,4.068,0,0,1,5.577.119A3.988,3.988,0,0,1,188.491,267.745Z" transform="translate(-173.616 -259.835)"/></svg>