<svg xmlns="http://www.w3.org/2000/svg" width="17.999" height="18" viewBox="0 0 17.999 18"><defs><style>.a{fill:#fff;}</style></defs><path class="a" d="M385.082,671.751h-2.438v-1.125a.563.563,0,0,0-1.125,0v1.125h-3.375v-1.125a.563.563,0,0,0-1.125,0v1.125h-3.375v-1.125a.562.562,0,1,0-1.125,0v1.125h-2.437a1.5,1.5,0,0,0-1.5,1.5v13.312a1.5,1.5,0,0,0,1.5,1.5h15a1.5,1.5,0,0,0,1.5-1.5V673.251A1.5,1.5,0,0,0,385.082,671.751Zm.375,14.812a.375.375,0,0,1-.375.375h-15a.375.375,0,0,1-.375-.375V673.251a.375.375,0,0,1,.375-.375h2.437V674a.562.562,0,0,0,1.125,0v-1.125h3.375V674a.563.563,0,0,0,1.125,0v-1.125h3.375V674a.563.563,0,0,0,1.125,0v-1.125h2.438a.375.375,0,0,1,.375.375Z" transform="translate(-368.582 -670.063)"/><rect class="a" width="2.375" height="2.031" transform="translate(3.726 11.873)"/><rect class="a" width="2.375" height="2.031" transform="translate(7.941 11.873)"/><rect class="a" width="2.375" height="2.031" transform="translate(12.156 11.873)"/><rect class="a" width="2.375" height="2.031" transform="translate(3.726 8.873)"/><rect class="a" width="2.375" height="2.031" transform="translate(7.941 8.873)"/><rect class="a" width="2.375" height="2.031" transform="translate(12.156 8.873)"/><rect class="a" width="2.375" height="2.031" transform="translate(3.726 5.873)"/><rect class="a" width="2.375" height="2.031" transform="translate(7.941 5.873)"/><rect class="a" width="2.375" height="2.031" transform="translate(12.156 5.873)"/></svg>