<svg xmlns="http://www.w3.org/2000/svg" width="20.111" height="20.111" viewBox="0 0 20.111 20.111"><defs><style>.a{fill:#fff;}</style></defs><path class="a" d="M717.641,468.28l-4.615-4.614a8.887,8.887,0,0,1-2.666,2.666l4.614,4.614a1.885,1.885,0,0,0,2.666-2.666Z" transform="translate(-698.083 -451.387)"/><path class="a" d="M697.027,442.79a7.541,7.541,0,1,0-7.541,7.541A7.542,7.542,0,0,0,697.027,442.79Zm-7.541,5.656a5.656,5.656,0,1,1,5.656-5.656A5.662,5.662,0,0,1,689.485,448.446Z" transform="translate(-681.944 -435.248)"/><path class="a" d="M689.217,446.921h1.257a3.146,3.146,0,0,1,3.142-3.142v-1.257A4.4,4.4,0,0,0,689.217,446.921Z" transform="translate(-686.074 -439.379)"/></svg>