<svg xmlns="http://www.w3.org/2000/svg" width="7.733" height="18" viewBox="0 0 7.733 18"><defs><style>.a{fill:#fff;}</style></defs><path class="a" d="M653.363,687.768a3.9,3.9,0,0,0-.494-.408v-8.924a2.239,2.239,0,0,0-4.477,0v8.924a3.821,3.821,0,0,0-.493.409,3.736,3.736,0,0,0,0,5.364,3.925,3.925,0,0,0,5.464,0,3.738,3.738,0,0,0,0-5.364ZM653,692.762a3.405,3.405,0,0,1-4.739,0,3.22,3.22,0,0,1,0-4.624,3.307,3.307,0,0,1,.531-.423l.118-.077v-9.2a1.721,1.721,0,0,1,3.442,0v9.2l.119.077a3.33,3.33,0,0,1,.53.423h0a3.218,3.218,0,0,1,0,4.624Z" transform="translate(-646.764 -676.239)"/><path class="a" d="M652.429,692.125v-6.908h-1.462v6.908a2.7,2.7,0,1,0,1.462,0Z" transform="translate(-647.823 -680.57)"/></svg>