<svg xmlns="http://www.w3.org/2000/svg" width="17.835" height="20.541" viewBox="0 0 17.835 20.541"><defs><style>.a{fill:#fff;}</style></defs><path class="a" d="M656.076,490.607c-1.369-2.848-.641-4.48.411-6.019a9.579,9.579,0,0,0,1.45-3.352,3.94,3.94,0,0,1,.543,3.019,7.619,7.619,0,0,0,1.66-5.706,9.854,9.854,0,0,1,3.08,12.057c11.08-6.269,2.757-15.65,1.307-16.707.483,1.057.575,2.846-.4,3.715-1.651-6.265-5.737-7.549-5.737-7.549.484,3.23-1.751,6.763-3.9,9.4a6.978,6.978,0,0,0-.834-3.41c-.151,2.341-1.94,4.249-2.424,6.592C650.571,485.828,651.718,488.152,656.076,490.607Z" transform="translate(-651.056 -470.066)"/></svg>