<svg xmlns="http://www.w3.org/2000/svg" width="15" height="13.285" viewBox="0 0 15 13.285"><path d="M278.057,106.682a1.247,1.247,0,1,1-1.247,1.247A1.246,1.246,0,0,1,278.057,106.682Z" transform="translate(-272.453 -95.891)"/><path d="M298.762,106.682a1.247,1.247,0,1,1-1.247,1.247A1.247,1.247,0,0,1,298.762,106.682Z" transform="translate(-287.716 -95.891)"/><path d="M274.453,69.58h-7.7a.608.608,0,0,0-.455.6.684.684,0,0,0,.455.646h6.9l-.388,1.312h-6.782a.566.566,0,0,0-.424.561.639.639,0,0,0,.424.6h6.438l-.364,1.227h-7l-.465-3.7-.151-1.249s-.135-1.154-.212-1.629-1.272-1.078-3.844-2.29c-.6-.254-1.111.853,0,1.432l2.028.947s.472.274.512.641.864,6.47.864,6.47.033.849.8.849h7.738a.822.822,0,0,0,.774-.677l1.534-4.555S275.6,69.58,274.453,69.58Z" transform="translate(-260.231 -65.623)"/></svg>