<svg xmlns="http://www.w3.org/2000/svg" width="19.856" height="18" viewBox="0 0 19.856 18"><defs><style>.a{fill:#fff;}</style></defs><path class="a" d="M670.883,209.86a9.874,9.874,0,0,0-9.307-9.757v-.426a.554.554,0,1,0-1.107,0v.426a9.875,9.875,0,0,0-9.3,9.531,2.834,2.834,0,0,0-.112.784h.987a1.884,1.884,0,0,1,.06-.468h.043c0-.05,0-.1,0-.152a1.864,1.864,0,0,1,3.622.62h.987a1.864,1.864,0,0,1,3.709-.265v4.986a.877.877,0,0,1-1.754,0,.553.553,0,1,0-1.106,0,1.984,1.984,0,0,0,3.967,0V209.95h-.038a1.864,1.864,0,0,1,3.669.468h.987c0-.063-.006-.124-.009-.185h.009a1.864,1.864,0,0,1,3.706-.293v.01h0a1.875,1.875,0,0,1,.024.283h.986A2.81,2.81,0,0,0,670.883,209.86Z" transform="translate(-651.055 -199.123)"/></svg>