<svg xmlns="http://www.w3.org/2000/svg" width="21.57" height="20" viewBox="0 0 21.57 20"><defs><style>.a{fill:#fff;}</style></defs><path class="a" d="M65.694,73.856l5.266-2.364a.3.3,0,0,0,.15-.393l-.7-1.585a.3.3,0,0,0-.4-.151l-3.135,1.416a.3.3,0,0,1-.39-.139l-2.2-4.391a.3.3,0,0,0-.132-.132l-6.289-3.2a.3.3,0,0,0-.269,0l-4.819,2.41a.3.3,0,0,0-.139.388l.7,1.585a.3.3,0,0,0,.406.146L57.6,65.52a.3.3,0,0,1,.272,0l2.016,1.058a.3.3,0,0,1,.065.482L57.5,69.357a2.837,2.837,0,0,0-.822,2.891.3.3,0,0,1-.068.283l-6.964,7.506a.3.3,0,0,0,.008.414L50.9,81.694a.3.3,0,0,0,.422,0l7.146-7.146a.3.3,0,0,1,.368-.043l1.82,1.124a.3.3,0,0,1,.054.465l-3.588,3.588a.3.3,0,0,0,0,.422l1.237,1.237a.3.3,0,0,0,.42,0l5.278-5.168a.3.3,0,0,0,.024-.4L61.521,72.6a.3.3,0,0,1,.03-.406l1.773-1.642a.3.3,0,0,1,.471.088L65.3,73.715A.3.3,0,0,0,65.694,73.856Z" transform="translate(-49.566 -61.782)"/><circle class="a" cx="2.367" cy="2.367" r="2.367" transform="translate(15.273)"/></svg>